<?xml version="1.0" encoding="UTF-8"?>
<svg width="157px" height="34px" viewBox="0 0 157 34" version="1.1" xmlns="http://www.w3.org/2000/svg" xmlns:xlink="http://www.w3.org/1999/xlink">
    <title>Mercado Pago</title>
    <g id="Page-1" stroke="none" stroke-width="1" fill="none" fill-rule="evenodd">
        <g id="mercadopago-logo" fill-rule="nonzero">
            <path d="M47.7706,8.6217 C46.4467,7.2965 44.5765,6.5392 42.4088,6.5392 C38.5545,6.5392 35.4404,9.5985 35.4404,13.3796 C35.4404,17.1607 38.5545,20.22 42.4088,20.22 C44.5765,20.22 46.4467,19.4627 47.7706,18.1375 L47.7706,20.2233 L51.1372,20.2233 L51.1372,13.3796 L51.1372,6.5358 L47.7706,6.5358 L47.7706,8.6217 Z M42.9101,16.9535 C40.9855,16.9535 39.4305,15.3562 39.4305,13.3796 C39.4305,11.4029 40.9855,9.8057 42.9101,9.8057 C44.8348,9.8057 46.3897,11.4029 46.3897,13.3796 C46.3897,15.3562 44.8348,16.9535 42.9101,16.9535 Z" id="Shape" fill="#009EE3"></path>
            <path d="M61.0446,6.5392 C59.1645,6.5392 57.5104,7.3644 56.3934,8.6552 L56.3934,6.5358 L53.0261,6.5358 L53.0261,20.2233 L56.3934,20.2233 L56.3934,13.1724 C56.3934,11.2903 57.6176,9.8057 59.6425,9.8057 C61.6674,9.8057 62.6701,11.2903 62.6701,13.1724 L62.6701,20.2233 L66.0374,20.2233 L66.0374,12.1348 C66.0374,8.5146 63.9251,6.5392 61.0446,6.5392 Z" id="Path" fill="#009EE3"></path>
            <path d="M75.9448,6.5392 C73.7771,6.5392 71.9069,7.2965 70.583,8.6217 L70.583,0 L67.2157,0 L67.2157,20.2233 L70.583,20.2233 L70.583,18.1375 C71.9069,19.4627 73.7771,20.22 75.9448,20.22 C79.7991,20.22 82.9131,17.1607 82.9131,13.3796 C82.9131,9.5985 79.7991,6.5392 75.9448,6.5392 Z M75.4435,16.9535 C73.5188,16.9535 71.9639,15.3562 71.9639,13.3796 C71.9639,11.4029 73.5188,9.8057 75.4435,9.8057 C77.3681,9.8057 78.9231,11.4029 78.9231,13.3796 C78.9231,15.3562 77.3681,16.9535 75.4435,16.9535 Z" id="Shape" fill="#009EE3"></path>
            <path d="M90.1631,13.3796 C90.1631,15.3562 91.7181,16.9535 93.6427,16.9535 C95.5674,16.9535 97.1224,15.3562 97.1224,13.3796 C97.1224,11.4029 95.5674,9.8057 93.6427,9.8057 C91.7174,9.8057 90.1631,11.4029 90.1631,13.3796 Z" id="Path" fill="#009EE3"></path>
            <path d="M111.459,6.5358 L107.842,6.5358 L104.058,11.334 L104.058,0 L100.69,0 L100.69,20.2233 L104.058,20.2233 L104.058,15.4246 L107.926,20.2233 L112.049,20.2233 L106.844,13.5875 L111.459,6.5358 Z" id="Path" fill="#009EE3"></path>
            <path d="M118.7,14.3839 C118.7,15.9811 119.703,16.9198 121.227,16.9198 C122.751,16.9198 123.699,15.954 123.699,14.3839 L123.699,6.5358 L127.06,6.5358 L127.06,15.3562 C127.06,18.4155 124.535,20.22 121.227,20.22 C117.92,20.22 115.338,18.4155 115.338,15.3562 L115.338,6.5358 L118.705,6.5358 L118.705,14.3839 L118.7,14.3839 Z" id="Path" fill="#009EE3"></path>
            <path d="M143.496,8.5146 C142.382,7.2171 140.842,6.5392 139.022,6.5392 C137.202,6.5392 135.718,7.2171 134.548,8.5146 C133.379,9.8121 132.767,11.4969 132.767,13.3796 C132.767,15.2622 133.379,16.947 134.548,18.2445 C135.718,19.542 137.202,20.22 139.022,20.22 C140.842,20.22 142.382,19.5149 143.496,18.2445 C144.61,16.974 145.221,15.2893 145.221,13.3796 C145.221,11.4699 144.61,9.7851 143.496,8.5146 Z M141.399,16.2485 C140.787,16.947 139.968,17.2965 139.022,17.2965 C138.077,17.2965 137.257,16.947 136.645,16.2485 C136.034,15.55 135.727,14.546 135.727,13.3796 C135.727,12.2131 136.034,11.2361 136.645,10.5106 C137.257,9.785 138.077,9.4085 139.022,9.4085 C139.968,9.4085 140.787,9.785 141.399,10.5106 C142.011,11.2361 142.317,12.2131 142.317,13.3796 C142.317,14.546 142.011,15.55 141.399,16.2485 Z" id="Shape" fill="#009EE3"></path>
            <path d="M155.889,16.9535 C156.445,16.9535 156.946,16.8669 157,16.8398 L157,20.1097 C156.723,20.1908 156.112,20.2719 155.445,20.2719 C152.841,20.2719 151.56,19.0143 151.56,16.3025 L151.56,9.7309 L149.392,9.7309 L149.392,6.5358 L151.56,6.5358 L151.56,2.8059 L154.928,2.8059 L154.928,6.5358 L156.889,6.5358 L156.889,9.7309 L154.928,9.7309 L154.928,15.6856 C154.928,16.4899 155.278,16.9535 155.889,16.9535 Z" id="Path" fill="#009EE3"></path>
            <path d="M29.6977,19.4358 C29.6977,20.5752 28.7828,21.4958 27.657,21.4958 L7.6344,21.4958 L7.6344,27.0167 L27.6577,27.0167 C31.7117,27.0167 35.0055,23.6812 35.0055,19.5844 L35.0055,7.2965 L29.6977,7.2965 L29.6977,19.4358 Z" id="Path" fill="#009EE3"></path>
            <path d="M19.1423,0 C15.0975,0 11.7946,3.3624 11.7946,7.4642 L11.7946,19.7317 L17.1024,19.7317 L17.1024,7.6128 C17.1024,6.4733 18.0173,5.5527 19.1423,5.5527 L31.7117,5.5527 L31.7117,0 L19.1423,0 Z" id="Path" fill="#009EE3"></path>
            <path d="M5.2907,7.2965 L0,7.2965 L0,20.3154 C0,24.4122 3.2938,27.7746 7.3479,27.7746 L14.421,27.7746 L17.1024,27.7746 L17.1024,22.254 L7.3479,22.254 C6.2229,22.254 5.2907,21.3334 5.2907,20.1939 L5.2907,7.2965 Z" id="Path" fill="#009EE3"></path>
            <path d="M89.4303,25.7859 C89.4303,27.7626 90.9852,29.3598 92.9099,29.3598 C94.8345,29.3598 96.3895,27.7626 96.3895,25.7859 C96.3895,23.8092 94.8345,22.212 92.9099,22.212 C90.9859,22.212 89.4303,23.8092 89.4303,25.7859 Z" id="Path" fill="#9EF0E1"></path>
            <path d="M93.0875,14.8542 C91.1628,14.8542 89.6078,13.257 89.6078,11.2803 C89.6078,9.3036 91.1628,7.7064 93.0875,7.7064 C95.0121,7.7064 96.5671,9.3036 96.5671,11.2803 C96.5671,13.257 95.0121,14.8542 93.0875,14.8542 Z" id="Path" fill="#34B3DF"></path>
        </g>
    </g>
</svg> 